HIERARCHY
ROOT Hips
{
    OFFSET 0.000000 0.000000 0.000000
    CHANNELS 6 Xposition Yposition Zposition Zrotation Xrotation Yrotation
    JOINT Spine
    {
        OFFSET -0.000000 7.925200 0.000000
        CHANNELS 3 Zrotation Xrotation Yrotation
        JOINT Spine1
        {
            OFFSET -0.000000 23.364719 0.000000
            CHANNELS 3 Zrotation Xrotation Yrotation
            JOINT Neck
            {
                OFFSET -0.000000 23.268766 2.115342
                CHANNELS 3 Zrotation Xrotation Yrotation
                JOINT Head
                {
                    OFFSET -0.000000 13.530829 -1.932976
                    CHANNELS 3 Zrotation Xrotation Yrotation
                    End Site
                    {
                        OFFSET -0.000000 24.162195 0.000000
                    }
                }
            }
            JOINT LeftShoulder
            {
                OFFSET 3.858291 22.792089 -0.033814
                CHANNELS 3 Zrotation Xrotation Yrotation
                JOINT LeftArm
                {
                    OFFSET 7.057024 0.000000 0.000000
                    CHANNELS 3 Zrotation Xrotation Yrotation
                    JOINT LeftForeArm
                    {
                        OFFSET 34.734173 0.000000 0.000000
                        CHANNELS 3 Zrotation Xrotation Yrotation
                        JOINT LeftHand
                        {
                            OFFSET 23.943203 0.000000 0.000000
                            CHANNELS 3 Zrotation Xrotation Yrotation
                            End Site
                            {
                                OFFSET 14.497317 0.000000 0.000000
                            }
                        }
                    }
                }
            }
            JOINT RightShoulder
            {
                OFFSET -3.868823 22.792089 -0.033814
                CHANNELS 3 Zrotation Xrotation Yrotation
                JOINT RightArm
                {
                    OFFSET -7.057024 0.000000 0.000000
                    CHANNELS 3 Zrotation Xrotation Yrotation
                    JOINT RightForeArm
                    {
                        OFFSET -34.734173 0.000000 0.000000
                        CHANNELS 3 Zrotation Xrotation Yrotation
                        JOINT RightHand
                        {
                            OFFSET -23.943203 0.000000 0.000000
                            CHANNELS 3 Zrotation Xrotation Yrotation
                            End Site
                            {
                                OFFSET -14.497317 0.000000 0.000000
                            }
                        }
                    }
                }
            }
        }
    }
    JOINT LeftUpLeg
    {
        OFFSET 9.664878 0.000000 0.000000
        CHANNELS 3 Zrotation Xrotation Yrotation
        JOINT LeftLeg
        {
            OFFSET -0.000000 -38.728706 0.000000
            CHANNELS 3 Zrotation Xrotation Yrotation
            JOINT LeftFoot
            {
                OFFSET -0.000000 -40.242161 0.000000
                CHANNELS 3 Zrotation Xrotation Yrotation
                JOINT LeftToeBase
                {
                    OFFSET -0.000000 -6.282171 14.497317
                    CHANNELS 3 Zrotation Xrotation Yrotation
                    End Site
                    {
                        OFFSET -0.000000 0.000000 3.865951
                    }
                }
            }
        }
    }
    JOINT RightUpLeg
    {
        OFFSET -9.664878 0.000000 0.000000
        CHANNELS 3 Zrotation Xrotation Yrotation
        JOINT RightLeg
        {
            OFFSET -0.000000 -38.728706 0.000000
            CHANNELS 3 Zrotation Xrotation Yrotation
            JOINT RightFoot
            {
                OFFSET -0.000000 -40.242161 0.000000
                CHANNELS 3 Zrotation Xrotation Yrotation
                JOINT RightToeBase
                {
                    OFFSET -0.000000 -6.282171 14.497317
                    CHANNELS 3 Zrotation Xrotation Yrotation
                    End Site
                    {
                        OFFSET -0.000000 0.000000 3.865951
                    }
                }
            }
        }
    }
}
MOTION
Frames:    7
Frame Time:    0.008333
-89.461670    88.853676    24.748260    -2.265014    -1.715202    87.347206    0.250315    -2.103568    -0.251241    0.169416    -1.281127    -0.254075    -3.103835    19.791693    5.966850    -1.608617    -1.151959    5.860513    12.433969    -0.026405    2.656897    -13.582866    4.767184    -3.236234    4.230998    -1.569764    -0.510154    1.643401    -1.669447    -8.253389    -12.554418    1.171079    5.419571    14.738997    5.111899    5.557957    -1.130135    -0.469324    -1.361283    -1.900330    -0.561195    4.727788    1.762590    3.545478    4.944659    -2.837905    -2.636736    0.214689    5.052070    -3.348490    4.343973    0.000000    0.000000    0.000000    5.333108    0.711550    2.443241    -1.491293    2.329057    1.792489    -2.905141    -4.314305    -13.349375    0.000000    0.000000    0.000000    
-89.471092    88.853401    24.747089    -2.236190    -1.724295    87.290344    0.252377    -2.074332    -0.232407    0.157535    -1.281540    -0.235244    -3.095154    19.795910    5.958430    -1.615983    -1.177973    5.850424    12.492450    -0.032913    2.633911    -13.501828    4.714741    -3.248423    4.233016    -1.563941    -0.502882    1.320508    -1.641284    -8.309937    -12.602487    1.177133    5.463608    14.677442    5.015189    5.569834    -1.102649    -0.421705    -1.345372    -1.839713    -0.509635    4.667685    1.770966    3.555953    4.984977    -2.841418    -2.593148    0.182768    5.070422    -3.372457    4.390320    0.000000    0.000000    0.000000    5.340705    0.721012    2.450618    -1.492009    2.343388    1.802425    -2.904309    -4.298707    -13.309366    0.000000    0.000000    0.000000    
-89.477951    88.853012    24.745041    -2.232962    -1.727123    87.256050    0.269681    -2.061828    -0.228588    0.127635    -1.301467    -0.231984    -3.088634    19.789223    5.972715    -1.631072    -1.155501    5.863752    12.531327    -0.046695    2.640326    -13.464474    4.770585    -3.247330    4.217585    -1.510172    -0.464415    1.346923    -1.591974    -8.401671    -12.610991    1.192095    5.505157    14.638226    4.978773    5.577087    -1.075051    -0.355297    -1.351022    -1.819264    -0.443177    4.736999    1.774246    3.553218    5.001809    -2.847184    -2.582374    0.256621    5.041150    -3.388819    4.345599    0.000000    0.000000    0.000000    5.338898    0.719604    2.460669    -1.491409    2.339620    1.788517    -2.890837    -4.295306    -13.261544    0.000000    0.000000    0.000000    
-89.473518    88.847832    24.745029    -2.177337    -1.731685    87.226341    0.284474    -2.021997    -0.223550    0.094268    -1.278032    -0.227787    -3.127616    19.785238    5.971309    -1.562854    -1.172987    5.871225    12.571179    -0.063002    2.647634    -13.418491    4.810406    -3.264112    4.202599    -1.456318    -0.419388    1.534104    -1.552557    -8.325312    -12.620059    1.184772    5.519037    14.610875    4.971655    5.609476    -1.078068    -0.265762    -1.376229    -1.732067    -0.351442    4.796215    1.777434    3.617155    5.014352    -2.852193    -2.577585    0.218637    5.071671    -3.416859    4.393126    0.000000    0.000000    0.000000    5.340089    0.775037    2.464973    -1.490232    2.345995    1.845520    -2.906832    -4.310410    -13.299565    0.000000    0.000000    0.000000    
-89.481232    88.849831    24.740940    -2.177624    -1.727517    87.201820    0.291989    -2.034299    -0.223172    0.073251    -1.253801    -0.227635    -3.138367    19.773252    5.983812    -1.563405    -1.181675    5.884032    12.588614    -0.079941    2.660397    -13.364347    4.849948    -3.277846    4.226402    -1.467577    -0.385807    1.242329    -1.544970    -8.434367    -12.650928    1.172638    5.550704    14.598091    4.943606    5.619424    -1.091006    -0.223925    -1.370183    -1.773326    -0.310839    4.762135    1.774813    3.607671    5.017593    -2.861101    -2.561399    0.205843    5.073348    -3.416837    4.430761    0.000000    0.000000    0.000000    5.332502    0.763244    2.498657    -1.487736    2.355425    1.800244    -2.897629    -4.311646    -13.268318    0.000000    0.000000    0.000000    
-89.494560    88.859192    24.737959    -2.214555    -1.727004    87.177429    0.246774    -2.059369    -0.213171    0.164855    -1.274884    -0.215671    -3.207589    19.781612    5.983875    -1.541226    -1.183626    5.884867    12.561215    -0.098219    2.635229    -13.335461    4.891731    -3.273771    4.268477    -1.502866    -0.376443    1.126099    -1.571151    -8.359836    -12.728877    1.181526    5.528503    14.570707    4.953418    5.661224    -1.085825    -0.215242    -1.360582    -1.777037    -0.301795    4.739799    1.774424    3.551255    5.006794    -2.859538    -2.539726    0.291510    5.067915    -3.405885    4.367688    0.000000    0.000000    0.000000    5.334509    0.703115    2.457541    -1.494060    2.372804    1.857891    -2.864525    -4.281252    -13.260350    0.000000    0.000000    0.000000    
-89.497078    88.861229    24.735979    -2.200578    -1.727198    87.149612    0.315689    -2.074841    -0.226252    0.033599    -1.225594    -0.231723    -3.189239    19.742865    6.008945    -1.533066    -1.158645    5.914365    12.645894    -0.127839    2.687276    -13.307026    4.872299    -3.281986    4.317256    -1.529656    -0.368252    0.509390    -1.553177    -8.400808    -12.692727    1.149390    5.605832    14.551244    4.920461    5.660839    -1.098011    -0.133557    -1.336967    -1.712315    -0.215214    4.580945    1.773412    3.564372    5.027208    -2.863557    -2.531540    0.269530    5.061844    -3.409208    4.402524    0.000000    0.000000    0.000000    5.337948    0.722269    2.477046    -1.506494    2.355118    1.831631    -2.856489    -4.264468    -13.229917    0.000000    0.000000    0.000000    
